<?xml version="1.0" encoding="UTF-8" standalone="no"?>
<svg
   width="128"
   height="128"
   viewBox="-12 -12 24 24"
   role="img"
   aria-label="ground-common-sense"
   version="1.1"
   id="svg1208"
   sodipodi:docname="ground-common-sense.svg"
   inkscape:version="1.2.2 (b0a8486541, 2022-12-01)"
   xmlns:inkscape="http://www.inkscape.org/namespaces/inkscape"
   xmlns:sodipodi="http://sodipodi.sourceforge.net/DTD/sodipodi-0.dtd"
   xmlns="http://www.w3.org/2000/svg"
   xmlns:svg="http://www.w3.org/2000/svg">
  <sodipodi:namedview
     id="namedview1210"
     pagecolor="#ffffff"
     bordercolor="#000000"
     borderopacity="0.25"
     inkscape:showpageshadow="2"
     inkscape:pageopacity="0.0"
     inkscape:pagecheckerboard="0"
     inkscape:deskcolor="#d1d1d1"
     showgrid="false"
     inkscape:zoom="6.3671875"
     inkscape:cx="64.078528"
     inkscape:cy="64.157055"
     inkscape:window-width="1854"
     inkscape:window-height="1011"
     inkscape:window-x="0"
     inkscape:window-y="0"
     inkscape:window-maximized="1"
     inkscape:current-layer="svg1208" />
  <title
     id="title1177">ground-common-sense: what most people hold by nature (מפורסמות)</title>
  <defs
     id="defs1186">
    <linearGradient
       id="fade-common"
       x1="0"
       y1="-0.6"
       x2="0"
       y2="10.4"
       gradientUnits="userSpaceOnUse">
      <stop
         offset="0"
         stop-color="#c026d3"
         stop-opacity="0.35"
         id="stop1179" />
      <stop
         offset="0.42"
         stop-color="#c026d3"
         stop-opacity="0.95"
         id="stop1181" />
      <stop
         offset="1"
         stop-color="#c026d3"
         stop-opacity="1"
         id="stop1183" />
    </linearGradient>
  </defs>
  <path
     d="M -6.4 -0.6 H 6.4 L 9.6 10.4 H -9.6 Z"
     fill="url(#fade-common)"
     id="path1188" />
  <path
     d="M -11.2 -0.6 H 11.2"
     fill="none"
     stroke="#c026d3"
     stroke-width="0.9"
     stroke-linecap="round"
     stroke-linejoin="round"
     id="path1190" />
  <path
     d="M -6.6 -6.4 L 0 -11.6 L 6.6 -6.4 Z"
     fill="#c026d3"
     id="path1192" />
  <rect
     x="-4.8"
     y="-6.8"
     width="9.6"
     height="6.20"
     fill="#c026d3"
     id="rect1194" />
  <path
     d="m -2.3827009,3.7504264 c -0.12,0.589 -0.725,1.119 -1.337,1.119 -0.613,0 -0.899,-0.53 -0.665,-1.119 0.211,-0.529 0.774,-0.919 1.278,-0.919 0.503,0 0.831,0.39 0.724,0.919 z"
     fill="#ffffff"
     id="path1196" />
  <path
     d="m -7.4387009,9.0864264 q 1.68,-3.673 3.555,-3.673 1.874,0 1.345,3.673 z"
     fill="#ffffff"
     id="path1198" />
  <path
     d="m 0.71629908,3.7504264 c 0.057,0.589 -0.388,1.119 -1.001,1.119 -0.613,0 -1.05799998,-0.53 -1.00099998,-1.119 0.052,-0.529 0.49799998,-0.919 1.00099998,-0.919 0.503,0 0.949,0.39 1.001,0.919 z"
     fill="#ffffff"
     id="path1200" />
  <path
     d="m -2.7347009,9.0864264 q 0.575,-3.673 2.44999998,-3.673 1.87500002,0 2.45000002,3.673 z"
     fill="#ffffff"
     id="path1202" />
  <path
     d="m 3.8152991,3.7504264 c 0.234,0.589 -0.052,1.119 -0.665,1.119 -0.612,0 -1.217,-0.53 -1.337,-1.119 -0.107,-0.529 0.221,-0.919 0.724,-0.919 0.504,0 1.067,0.39 1.278,0.919 z"
     fill="#ffffff"
     id="path1204" />
  <path
     d="m 1.9692991,9.0864264 q -0.529,-3.673 1.345,-3.673 1.875,0 3.555,3.673 z"
     fill="#ffffff"
     id="path1206" />
</svg>
