<svg xmlns="http://www.w3.org/2000/svg" viewBox="-12 -12 24 24" width="128" height="128" role="img" aria-label="ascribed-difficulty">
<title>Ascribed difficulty: a problem attributed to another view</title>
<desc>Chapter 10, English pp214–218 and Hebrew pp213–217: a quoted document carries the existing orange Difficulty triangle. The speaker reports or reconstructs a problem for another thinker and need not endorse it. Attribution and the strength of the difficulty are separate questions.</desc>
<rect x="-8.6" y="-10" width="17.2" height="20" rx="1.8"
  fill="#fff" stroke="#475569" stroke-width="1.35" stroke-linecap="round" stroke-linejoin="round"/>
<g fill="#475569">
  <path d="M-5.8-7.8h2.6v2.1q0 1.75-2.35 2.15v-1.05q1.1-.2 1.1-1.2H-5.8Z"/>
  <path d="M-1.4-7.8h2.6v2.1q0 1.75-2.35 2.15v-1.05q1.1-.2 1.1-1.2H-1.4Z"/>
</g><g transform="translate(0 2.6) scale(.64)"><path xmlns="http://www.w3.org/2000/svg" d="M 0 -8.6 L 8.2 6.5 C 8.7 7.5, 8.1 8.4, 7.1 8.4 L -7.1 8.4 C -8.1 8.4, -8.7 7.5, -8.2 6.5 Z" fill="#ea580c" fill-opacity="0.15" stroke="#ea580c" stroke-width="1.45" stroke-linecap="round" stroke-linejoin="round" />
  <path xmlns="http://www.w3.org/2000/svg" d="M 0 -2.6 V 2.6" fill="none" stroke="#ea580c" stroke-width="1.9" stroke-linecap="round" stroke-linejoin="round" />
  <circle xmlns="http://www.w3.org/2000/svg" cx="0" cy="5.7" r="1.15" fill="#ea580c" />
</g>
</svg>